# xmcd
#
# Track frame offsets: 
#        150
#        20514
#        44177
#        62289
#        80399
#        102357
#        120353
#        141182
#        160232
#        176093
#        192430
#        211596
#        237955
#        253413
#        270700
#        287740
#        304912
#
# Disc length: 4435 seconds
#
# Revision: 0
# Processed by: cddbd v1.5.1PL0 Copyright (c) Steve Scherf et al.
# Submitted via: ExactAudioCopy v0.95a5
#
DISCID=f6115111
DTITLE=Joel, Billy - Greatest Hits - Volume 3
DYEAR=2007
DGENRE=Blues
TTITLE0=Keeping The FAith
TTITLE1=An Innocent Man
TTITLE2=A Matter Of Trust
TTITLE3=Baby Grand (duet w/ Ray Charles)
TTITLE4=This Is The Time
TTITLE5=Leningrad
TTITLE6=We Didn't Start The Fire
TTITLE7=I Go To Extremes
TTITLE8=And So It Goes
TTITLE9=The Downeaster "Alexa"
TTITLE10=Shameless
TTITLE11=All About Soul (Remix)
TTITLE12=Lullabye (Goodnight, My Angel)
TTITLE13=The River Of Dreams
TTITLE14=To Make You Feel My Love
TTITLE15=HeyGirl
TTITLE16=Light As The Breeze
EXTD=ISRAEL make peace !\nIf you live by the sword, you shall die by i
EXTD=t !!!
EXTT0=
EXTT1=
EXTT2=
EXTT3=
EXTT4=
EXTT5=
EXTT6=
EXTT7=
EXTT8=
EXTT9=
EXTT10=
EXTT11=
EXTT12=
EXTT13=
EXTT14=
EXTT15=
EXTT16=
PLAYORDER=
